<?xml version="1.0" standalone="no"?>
<!DOCTYPE svg PUBLIC "-//W3C//DTD SVG 20010904//EN"
 "http://www.w3.org/TR/2001/REC-SVG-20010904/DTD/svg10.dtd">
<svg version="1.0" xmlns="http://www.w3.org/2000/svg"
 width="264.000000pt" height="264.000000pt" viewBox="0 0 264.000000 264.000000"
 preserveAspectRatio="xMidYMid meet">
<metadata>
Created by potrace 1.11, written by Peter Selinger 2001-2013
</metadata>
<g transform="translate(0.000000,264.000000) scale(0.100000,-0.100000)"
fill="#000000" stroke="none">
<path d="M675 2165 l-630 -362 -3 -247 c-2 -233 -1 -246 15 -237 10 5 105 59
210 119 l193 111 2 -484 3 -483 207 116 207 117 3 489 3 489 205 117 205 117
3 -475 c2 -531 -3 -491 73 -526 19 -9 41 -20 49 -25 15 -10 665 -377 708 -400
l22 -12 0 245 0 245 -210 118 -209 118 -3 489 -3 488 -140 80 c-77 44 -171 97
-210 117 l-70 38 -630 -362z"/>
<path d="M2018 1457 c-96 -56 -177 -106 -178 -111 -1 -5 79 -55 177 -112 l178
-102 55 31 c30 17 114 65 187 107 l131 76 -131 74 c-72 41 -156 89 -187 107
l-56 32 -176 -102z"/>
<path d="M2413 1179 l-193 -111 0 -224 c0 -124 3 -223 8 -221 4 3 91 53 195
112 l187 107 0 224 c0 123 -1 224 -2 224 -2 0 -90 -50 -195 -111z m157 -137
l0 -178 -111 -63 c-61 -35 -131 -74 -155 -88 l-44 -25 0 179 0 179 153 87 c83
48 153 87 155 87 1 0 2 -80 2 -178z"/>
</g>
</svg>
